<svg xmlns="http://www.w3.org/2000/svg" width="1600" height="1000" viewBox="0 0 1600 1000" fill="none">
  <rect width="1600" height="1000" fill="#0F172A"/>
  <rect x="0" y="0" width="1600" height="1000" fill="url(#paint0_linear)"/>
  <g opacity="0.22" stroke="#94A3B8">
    <path d="M0 80H1600M0 160H1600M0 240H1600M0 320H1600M0 400H1600M0 480H1600M0 560H1600M0 640H1600M0 720H1600M0 800H1600M0 880H1600"/>
    <path d="M120 0V1000M240 0V1000M360 0V1000M480 0V1000M600 0V1000M720 0V1000M840 0V1000M960 0V1000M1080 0V1000M1200 0V1000M1320 0V1000M1440 0V1000"/>
  </g>
  <path d="M310 660C310 566.112 386.112 490 480 490H1010C1103.89 490 1180 566.112 1180 660V730H310V660Z" fill="#1E293B"/>
  <rect x="410" y="420" width="360" height="120" rx="12" fill="#334155"/>
  <rect x="800" y="410" width="220" height="70" rx="10" fill="#475569"/>
  <circle cx="470" cy="740" r="82" fill="#0F172A" stroke="#F97316" stroke-width="10"/>
  <circle cx="1020" cy="740" r="82" fill="#0F172A" stroke="#F97316" stroke-width="10"/>
  <rect x="260" y="760" width="1080" height="25" fill="#0B1220"/>
  <defs>
    <linearGradient id="paint0_linear" x1="800" y1="0" x2="800" y2="1000" gradientUnits="userSpaceOnUse">
      <stop stop-color="#1E293B"/>
      <stop offset="1" stop-color="#0B1220"/>
    </linearGradient>
  </defs>
</svg>
